<?xml version="1.0" encoding="UTF-8"?>
<svg id="Layer_1" data-name="Layer 1" xmlns="http://www.w3.org/2000/svg" viewBox="0 0 837.07 146.97">
  <defs>
    <style>
      .cls-1 {
        fill: #fff;
      }
    </style>
  </defs>
  <path class="cls-1" d="M375.18,46.78c1.47-1.23,2.48-2.19,3.59-2.99,2.23-1.59,4.74-2.56,7.39-3.23,4.82-1.23,9.67-1.52,14.57-.53,3.99.81,7.31,2.66,9.51,6.24.09.15.3.24.45.35.37.16.57-.13.77-.32,4.67-4.41,10.31-6.42,16.6-6.77,3.1-.18,6.2-.07,9.26.65,6.88,1.62,11.27,5.8,13.03,12.71.55,2.16.8,4.36.81,6.58.01,12.19.02,24.38.02,36.57,0,.3-.02.6-.05.9-.04.48-.34.69-.79.72-.4.03-.8.04-1.2.04-6.11,0-12.22,0-18.33,0-.4,0-.8-.01-1.2-.02-.77,0-1.03-.45-1.02-1.15,0-.81,0-1.61,0-2.42,0-10.28,0-20.55,0-30.83,0-1.42-.06-2.82-.43-4.19-.91-3.3-3.31-5.47-6.39-5.41-3.88.08-6.55,1.17-7.79,5.27-.58,1.93-.72,3.95-.71,5.98.02,9.67,0,19.34,0,29.01,0,.81.01,1.61-.01,2.42-.04,1.22-.11,1.31-1.46,1.32-4.51.02-9.02.01-13.53.01-2.1,0-4.21.01-6.31-.01-1.06-.01-1.26-.22-1.3-1.18-.03-.8-.02-1.61-.02-2.42,0-10.17,0-20.35,0-30.52,0-1.52-.03-3.03-.42-4.5-1.02-3.9-3.94-5.84-7.87-5.27-3.96.57-5.81,2.34-6.6,6.29-.32,1.59-.42,3.19-.42,4.8.01,9.67,0,19.34,0,29.01,0,.81.01,1.61,0,2.42-.04,1.27-.1,1.36-1.41,1.37-6.61.02-13.22.02-19.84,0-1.2,0-1.34-.18-1.38-1.41-.02-.7-.01-1.41-.01-2.12,0-16.52,0-33.04,0-49.56,0-.6,0-1.21,0-1.81.04-1.95.04-1.98,2.02-1.99,6.11-.01,12.22,0,18.33,0,.4,0,.8,0,1.2.03.59.03.91.35.91.95,0,1.51,0,3.02,0,5.02Z"/>
  <path class="cls-1" d="M185.83,46.32c1-.06,1.33-.76,1.83-1.2,4-3.53,8.7-5.29,13.95-5.56,2.79-.15,5.6-.24,8.38.35,8.02,1.7,12.7,6.38,14.22,14.39.39,2.07.65,4.17.64,6.3-.02,11.58,0,23.16,0,34.74,0,.5,0,1.01-.04,1.51-.03.45-.31.72-.75.78-.3.04-.6.06-.9.06-6.41,0-12.82,0-19.23,0-.4,0-.82,0-1.19-.12-.23-.08-.52-.38-.55-.6-.08-.8-.07-1.61-.07-2.41,0-10.37,0-20.75,0-31.12,0-1.01.03-2.02-.11-3.02-.51-3.64-2.72-6.09-6.01-6.64-2.76-.46-7,.4-8.84,4.26-.79,1.65-1.19,3.42-1.26,5.25-.04,1.01-.03,2.01-.03,3.02,0,9.37,0,18.73,0,28.1,0,.81,0,1.61-.04,2.42-.01.45-.23.76-.71.8-.5.04-1,.06-1.5.06-6.01,0-12.02,0-18.03,0-.5,0-1,.02-1.5-.03-.57-.06-.88-.4-.9-.99,0-.4-.02-.81-.02-1.21,0-17.52,0-35.05,0-52.57,0-.4.02-.8.04-1.21.03-.62.42-.86.98-.89.3-.02.6-.01.9-.01,6.21,0,12.42,0,18.63,0,.4,0,.8.02,1.2.06.46.04.72.33.73.78.03,1.01.02,2.01.05,3.02.02.56.08,1.12.13,1.68Z"/>
  <path class="cls-1" d="M557.82,40.78c4.12,0,7.81-.02,11.51,0,3.65.02,3.2-.46,3.23,3.17.02,2.11,0,4.23-.03,6.34,0,.59-.33.93-.92.93-2,.02-4,.03-6.01.04-2.2,0-4.4.01-6.61.02-.71,0-1.11.37-1.15,1.09-.03.6-.03,1.21-.03,1.81,0,6.24-.03,12.48.02,18.72.02,1.91.24,3.81.41,5.71.04.49.23.98.37,1.46,1.55,5.36,4.89,8.19,11.15,6.03.38-.13.74-.3,1.12-.43.76-.25,1.1-.1,1.31.7.72,2.62,1.43,5.24,2.09,7.87.27,1.09.13,1.27-1.06,1.74-3.75,1.48-7.67,2.3-11.65,2.72-3.78.4-7.59.54-11.39.12-2.31-.26-4.52-.82-6.63-1.78-3.56-1.63-5.96-4.31-7.26-8.02-.88-2.5-1.19-5.08-1.19-7.71,0-6.64,0-13.29,0-19.93,0-2.82.02-5.64,0-8.46-.01-1.45-.16-1.61-1.51-1.64-1.7-.04-3.4,0-5.11-.04-1.05-.02-1.26-.21-1.27-1.22-.02-2.72,0-5.44,0-8.15,0-.74.35-1.08,1.09-1.08,1.8,0,3.6.01,5.41-.02,1.27-.02,1.39-.13,1.4-1.39.02-3.12,0-6.24.01-9.36,0-.7,0-1.41.05-2.11.04-.57.4-.88.96-.96,4.15-.62,8.31-1.24,12.46-1.87,2.37-.36,4.74-.73,7.12-1.1,1.93-.3,2.1-.18,2.11,1.72.02,3.93,0,7.85,0,11.78,0,.99,0,1.98,0,3.31Z"/>
  <path class="cls-1" d="M609.96,24c.44,1.03.24,2.05.25,3.04.03,4.13,0,8.26.02,12.39,0,1.26.09,1.34,1.41,1.35,3.31.02,6.61,0,9.92.01.8,0,1.6,0,2.4.02.56,0,.97.25.97.86,0,2.92,0,5.84-.01,8.76,0,.45-.26.76-.73.78-.7.04-1.4.06-2.1.06-3.41,0-6.81,0-10.22.01-1.42.01-1.64.21-1.64,1.5,0,7.55.04,15.11.06,22.66,0,1.73.35,3.41.85,5.04.29.95.7,1.9,1.2,2.76,1.51,2.55,3.68,3.9,6.73,3.55.9-.1,1.77-.24,2.64-.52,2.64-.86,2.66-.84,3.41,1.98.55,2.04,1.09,4.08,1.6,6.13.25,1.02.18,1.09-.88,1.53-2.5,1.06-5.12,1.72-7.78,2.2-5.04.91-10.13,1.23-15.25.74-2.41-.23-4.72-.83-6.92-1.84-3.45-1.59-5.83-4.2-7.11-7.78-.93-2.58-1.29-5.26-1.28-8.01.02-8.86.02-17.72,0-26.59,0-3.61.45-3.33-3.42-3.38-1.38-.02-3.08.57-4.06-.32-1.02-.92-.42-2.67-.37-4.04.06-1.97-.48-3.99.33-5.91,1.87-.42,3.77-.09,5.66-.2.2-.01.4,0,.6,0,1.06-.05,1.25-.21,1.26-1.21.02-3.02.01-6.04.01-9.06,0-.81,0-1.61.02-2.42.02-.72.43-1.06,1.12-1.16,5.64-.83,11.28-1.71,16.92-2.48,1.45-.2,2.88-.87,4.39-.44Z"/>
  <path class="cls-1" d="M326.48,40.57c1.12.4,2.23.19,3.31.2,3.3.03,6.61,0,9.91.02,1.2,0,1.33.15,1.34,1.43.02,2.52.03,5.03,0,7.55-.01,1.41-.07,1.47-1.62,1.48-3.1.02-6.21,0-9.31.02-4.34.03-3.87-.51-3.88,3.83-.01,5.84-.01,11.68.03,17.52.02,2.41.06,4.84.77,7.18.2.67.39,1.35.66,2,1.85,4.4,5.1,5.93,9.7,4.6.67-.19,1.32-.48,1.98-.7.76-.25,1.09-.1,1.31.7.72,2.62,1.43,5.24,2.09,7.87.29,1.14.01,1.33-1.07,1.74-3.76,1.44-7.67,2.29-11.65,2.71-3.78.4-7.59.53-11.39.11-2.31-.25-4.52-.82-6.63-1.79-3.56-1.63-5.96-4.31-7.25-8.03-.87-2.5-1.18-5.08-1.18-7.72.01-6.44,0-12.89,0-19.33,0-3.12,0-6.24-.02-9.36,0-1.01-.27-1.29-1.23-1.31-1.9-.05-3.8-.04-5.71-.06-.58,0-.92-.34-.92-.93,0-2.92,0-5.84.02-8.76,0-.47.33-.72.77-.73,1.9-.03,3.8-.01,5.71-.05,1.23-.02,1.36-.15,1.37-1.42.02-3.12,0-6.24.01-9.36,0-.5-.02-1.01,0-1.51.06-1.24.2-1.4,1.33-1.58,3.86-.59,7.71-1.18,11.57-1.77,2.57-.39,5.14-.78,7.71-1.16,1.81-.27,2.02-.15,2.01,1.86-.02,4.03-.02,8.06,0,12.08,0,.89-.15,1.81.24,2.66Z"/>
  <path class="cls-1" d="M755.6,82.21c2.04,1.08,3.72,1.96,5.39,2.83,1.79.93,3.66,1.59,5.64,1.97,1.12.21,2.17.02,3.26-.17,2.67-.48,4.16-4.02,2.7-6.49-.78-1.32-1.84-2.4-3.06-3.29-2.26-1.65-4.57-3.26-6.88-4.84-1.91-1.3-3.73-2.69-5.31-4.4-5.06-5.48-5.61-14.69-.56-20.78,1.03-1.24,2.18-2.35,3.48-3.31,3.32-2.43,7.06-3.8,11.11-4.13,6.98-.55,13.77.42,20.3,3.01.55.22,1.07.51,1.79.86-1.4,3.4-3.01,6.6-4.45,9.71-.96.47-1.52-.16-2.11-.42-1.47-.65-2.99-1.17-4.55-1.48-.97-.19-2-.27-2.98-.17-2.72.28-4.19,2.56-3.42,5.2.34,1.18.99,2.22,1.9,3.03,1.19,1.07,2.42,2.11,3.71,3.05,1.78,1.3,3.63,2.5,5.45,3.75,1.91,1.32,3.62,2.86,5.09,4.66,4.29,5.24,4.82,12.92.46,18.72-3.96,5.26-9.27,8.29-15.65,9.18-6.6.92-13.18.34-19.57-1.74-1.91-.62-3.73-1.44-5.43-2.52-.9-.57-1.02-.84-.67-1.7,1.4-3.43,2.83-6.86,4.34-10.53Z"/>
  <path class="cls-1" d="M724.06,55.08c1.32-2.07,1.7-3.74,2.32-5.31.85-2.16,1.76-4.28,3.18-6.13,1.58-2.06,3.57-3.58,6.15-4.01,1.97-.33,3.98-.26,5.96.24,2.27.57,4.29,1.63,6.16,3.01.99.73,1.1.99.68,2-1.98,4.73-3.97,9.45-5.98,14.16-.51,1.19-.74,1.32-2.11.88-2.15-.68-4.34-.69-6.54-.52-4.21.33-7.07,2.58-8.61,6.49-.93,2.36-1.23,4.86-1.22,7.4.02,7.05.02,14.1,0,21.15-.01,3.65.45,3.23-3.17,3.24-5.51.02-11.02,0-16.52,0-.7,0-1.4.02-2.1-.03-.57-.04-.89-.4-.9-.99,0-.4-.02-.81-.02-1.21,0-17.52,0-35.04,0-52.57,0-.4.02-.8.04-1.21.03-.62.42-.86.98-.89.3-.02.6-.01.9-.01,6.31,0,12.62,0,18.93,0,.2,0,.4,0,.6,0,1.04.05,1.24.21,1.26,1.21.03,1.81.02,3.63.02,5.44,0,2.32,0,4.63,0,7.65Z"/>
  <path class="cls-1" d="M836.88,24.02c.06.39.17.78.18,1.16.01,4.43.02,8.86,0,13.29,0,1.42-.23,1.7-1.12,1.63-.85-.07-1-.28-1.01-1.79-.02-2.92,0-5.84,0-8.76,0-.35-.04-.69-.06-1.07-.81.21-.75.8-.9,1.25-1.08,3.14-2.14,6.27-3.2,9.41-.27.8-.83,1.02-1.62.98-.73-.03-1.04-.44-1.25-1.07-.77-2.29-1.55-4.57-2.34-6.84-.42-1.21-.87-2.4-1.32-3.66-.71.39-.46.93-.46,1.33-.03,3.02,0,6.04-.03,9.06,0,.92-.46,1.27-1.32,1.16-.44-.06-.75-.27-.82-.72-.05-.4-.06-.8-.06-1.2,0-4.23,0-8.46,0-12.68,0-.5-.03-1.01.37-1.53.51-.03,1.1-.07,1.69-.11.8-.05,1.25.28,1.52,1.1,1.09,3.34,2.26,6.66,3.4,9.99.19.55.19,1.22,1.01,1.56.41-.62.6-1.35.84-2.06,1.01-2.95,2.05-5.88,2.96-8.86.66-2.14,1.12-1.7,2.59-1.71.28,0,.57.1.95.16Z"/>
  <path class="cls-1" d="M813.28,23.87c1.9,0,3.8-.03,5.69.02.61.02.72.56.68,1.1-.04.47-.28.74-.74.76-1,.04-2,.03-2.99.06-1.54.05-1.64.13-1.65,1.78-.02,3.21,0,6.43-.01,9.64,0,.7,0,1.41-.06,2.11-.04.63-.5.77-1.05.77-.53,0-1.05-.1-1.13-.71-.09-.69-.08-1.4-.08-2.1,0-3.31.01-6.63-.01-9.94-.01-1.33-.22-1.5-1.6-1.54-1-.03-2-.01-2.99-.08-.59-.04-.82-.46-.77-1.05.04-.46.28-.78.72-.78,2-.03,3.99-.01,5.99-.01,0,0,0,0,0-.01Z"/>
  <path class="cls-1" d="M519.42,82.07c.02-5.95-.02-11.89.02-17.84.02-2.23-.13-4.44-.49-6.62-1.12-6.9-4.5-12.19-10.94-15.24-1.45-.69-2.95-1.21-4.5-1.65-4.3-1.22-8.7-1.3-13.11-1.23-6.84.1-13.25,1.87-19.23,5.16-1.31.72-2.69,1.35-3.77,2.43.11,1.59,1.28,2.65,2,3.93,1.03,1.84,2.17,3.62,3.28,5.42.46.74.78.8,1.43.33.57-.41,1.11-.87,1.68-1.28,3.33-2.39,7.01-3.86,11.12-4.12,4.47-.29,7.9,1.52,10.61,5.55-2.1.54-3.75.96-5.4,1.38-4.56,1.15-9.17,2.09-13.62,3.62-3.23,1.11-6.34,2.48-9.12,4.51-2.92,2.13-5.11,4.85-6.21,8.32-1.15,3.6-1.5,7.29-.71,11.03,1.79,8.45,10.32,14.59,18.54,13.07,2.19-.4,4.23-1.2,6.2-2.2,2.59-1.31,5.15-2.69,7.72-4.04.52-.27.98-.69,1.64-.44.26,1.48.53,2.96.79,4.44.12.69.53,1.06,1.22,1.09.4.02.8.02,1.2.02,6.51,0,13.03,0,19.54,0,.57,0,1.2.17,1.79-.46-1.57-4.88-1.71-10-1.69-15.15ZM496.05,78.03c-.66,2.02-1.6,3.9-3.12,5.43-1.75,1.77-3.82,2.73-6.23,1.8-2.43-.94-3.77-2.9-4.01-5.54-.22-2.49.38-4.79,1.71-6.89,1.04-1.64,2.38-2.99,4.06-3.94,2.53-1.44,5.32-2.26,8.02-3.29.39-.15.84.02.86.52.05,1.1.01,2.21.01,3.31.06,2.94-.4,5.81-1.3,8.6Z"/>
  <path class="cls-1" d="M689.76,55.55c-2.72-7.63-7.86-12.8-15.7-14.87-9.04-2.39-17.91-1.63-26.23,2.76-10.82,5.7-15.66,16.99-14.43,27.68,1.23,10.72,6.87,18.7,16.1,24.11,3.76,2.21,7.84,3.51,12.22,3.74,6.95.36,13.78-.37,20.46-2.37,3.06-.92,6.08-1.94,8.89-3.5-.08-.37-.09-.7-.23-.95-1.7-3.19-3.42-6.38-5.13-9.56-.05-.09-.1-.17-.15-.26-.29-.52-.73-.66-1.26-.42-.64.29-1.25.64-1.89.92-4.17,1.86-8.52,2.97-13.1,2.66-8.07-.56-11.86-6.4-12.16-11.85-.02-.3.02-.6.03-.9,0-.38.32-.56.57-.59.8-.07,1.6-.07,2.4-.07,9.21,0,18.42,0,27.63,0,.8,0,1.6.02,2.4-.02.95-.05,1.21-.3,1.27-1.31.31-5.16.04-10.26-1.71-15.19ZM672.31,61.37c-.02.57-.37.93-.95.94-2.19.01-4.39,0-6.58,0,0,0,0,.02,0,.03-2.09,0-4.19.02-6.28,0-.95-.01-1.22-.31-1.25-1.28-.07-2.11-.07-4.22.58-6.26.21-.67.41-1.35.72-1.97,1.2-2.45,3.12-3.85,5.91-3.88,2.96-.03,5.22,1.19,6.54,3.9.89,1.82,1.29,3.79,1.33,5.82.02.9.03,1.81-.01,2.71Z"/>
  <path class="cls-1" d="M288.87,56.21c-2.71-8.31-8.25-13.74-16.68-15.78-8.31-2.01-16.58-1.4-24.3,2.42-10.28,5.09-15.45,13.67-15.72,25.15-.16,6.66,1.97,12.7,5.92,18.01,6.04,8.12,14.04,12.75,24.23,13.04,5.61.16,11.18-.43,16.65-1.87,3.49-.92,6.88-2.08,10.15-3.61.97-.45,1.05-.67.55-1.62-1.46-2.75-2.94-5.49-4.42-8.23q-1.19-2.2-3.55-1.09c-4.14,1.94-8.47,2.99-13.06,2.87-2.36-.06-4.56-.68-6.56-1.89-3.92-2.37-5.83-5.95-6.02-10.5-.03-.73.28-1.01,1.11-1.04.7-.03,1.4-.01,2.1-.01,4.61,0,9.21,0,13.82,0s9.21,0,13.82,0c.7,0,1.4.02,2.1-.02.99-.05,1.3-.29,1.36-1.22.33-4.96.06-9.85-1.49-14.62ZM271.14,61.61c-.05.62-.62.72-1.13.72-2.09.01-4.19,0-6.28,0v-.02c-2.19,0-4.39,0-6.58,0-.58,0-.95-.34-.98-.91-.15-2.62-.06-5.22.89-7.71,1.45-3.79,4.4-5.38,8.32-4.53,1.76.38,3.11,1.36,4.03,2.87,1.79,2.96,2.02,6.24,1.73,9.58Z"/>
  <g>
    <path class="cls-1" d="M73.86,0C33.22-.22,0,32.6,0,73.46c0,40.95,33.22,73.57,73.47,73.51,40.23.04,73.31-32.51,73.44-73.25C147.05,32.99,114.2.22,73.86,0ZM73.3,132.2c-32.05-.08-58.53-26.14-58.52-58.76.01-32.62,26.62-58.81,58.95-58.67,32.11.14,58.44,26.26,58.41,58.71.01,32.59-26.55,58.79-58.84,58.71Z"/>
    <path class="cls-1" d="M30.29,96.75c-.04-.4.1-.78.18-1.16,1.28-6.5,2.56-13.01,3.84-19.51.86-4.36,1.69-8.72,2.57-13.08.63-3.12,1.21-6.26,1.74-9.4.36-2.16.69-4.32,1.04-6.48.07-.41.13-.83.21-1.24.03-.15.11-.25.28-.25.16,0,.33,0,.49,0,4.94,0,9.87,0,14.81,0,.23,0,.46.01.66.02.13.16.07.3.05.43-.17,1.62-.35,3.24-.53,4.86-.08.74-.15,1.48-.23,2.22,0,.07-.02.14-.01.21,0,.04.04.08.08.1.03.01.1,0,.12-.01.14-.15.28-.31.41-.47,1.45-1.74,3.08-3.29,4.95-4.59,2.7-1.87,5.67-3.06,8.91-3.6,1.99-.33,3.99-.4,5.98-.23,2.1.18,4.12.69,5.97,1.76,2.05,1.18,3.51,2.87,4.48,5.02.31.68.47,1.41.56,2.15.11.95.2,1.9.26,2.85.15,2.56.21,5.12.02,7.68-.12,1.67-.4,3.32-.74,4.97-.79,3.85-1.56,7.7-2.34,11.56-.86,4.26-1.72,8.52-2.59,12.79-.21,1.05-.42,2.1-.63,3.15-.06.28-.08.3-.37.31-.16,0-.33,0-.49,0-5.63,0-11.27,0-16.9,0-.25,0-.51.05-.78-.06.21-1.05.41-2.1.62-3.15.62-3.2,1.25-6.39,1.87-9.59.63-3.22,1.27-6.43,1.89-9.65.42-2.17.85-4.34,1.24-6.51.26-1.47.37-2.95.35-4.45-.01-.7-.1-1.4-.3-2.07-.4-1.37-1.28-2.25-2.71-2.49-.93-.15-1.85-.1-2.76.2-.96.33-1.81.85-2.58,1.5-.88.74-1.61,1.61-2.27,2.55-1.03,1.48-1.83,3.07-2.5,4.74-.93,2.32-1.6,4.71-2.1,7.15-.93,4.61-1.84,9.21-2.76,13.82-.49,2.44-.97,4.88-1.45,7.32-.03.16-.08.32-.1.48-.02.13-.09.2-.23.2-.16,0-.33,0-.49,0-5.7,0-11.41,0-17.11,0-.21,0-.42.04-.63-.05Z"/>
    <path class="cls-1" d="M88.72,61.46c0-.29,0-.49,0-.7-.01-1.82-.03-3.63-.19-5.44-.12-1.34-.22-2.69-.67-3.98-.09-.25.03-.39.19-.54,1.09-1.06,2.27-1.99,3.55-2.82,2.61-1.69,5.47-2.76,8.53-3.25,1.89-.3,3.8-.37,5.71-.15,1.39.16,2.75.46,4.04,1.02,2.63,1.12,4.48,3.02,5.62,5.64.6,1.38.94,2.82,1.12,4.31.2,1.69.19,3.39.05,5.09-.16,2-.38,3.98-.75,5.95-.52,2.77-1.06,5.53-1.58,8.29-.54,2.83-1.08,5.66-1.62,8.5-.58,3.04-1.16,6.08-1.74,9.11-.25,1.32-.51,2.65-.76,3.97-.05.28-.01.37-.45.36-.14,0-.28,0-.42,0-5.45,0-10.89,0-16.34,0-.25,0-.51.04-.79-.06.19-1.03.38-2.05.58-3.08.58-3.06,1.17-6.12,1.76-9.18.64-3.33,1.28-6.67,1.91-10,.43-2.29.92-4.56,1.25-6.86.21-1.45.39-2.91.36-4.38-.01-.63-.11-1.25-.3-1.85-.16-.49-.38-.95-.7-1.36-.65-.83-1.5-1.3-2.56-1.39-1.07-.09-2.08.13-3.03.64-.83.44-1.55,1.03-2.2,1.7-.14.15-.25.34-.55.46Z"/>
  </g>
</svg>